<svg width="200" height="200" viewBox="0 0 200 200" fill="none" xmlns="http://www.w3.org/2000/svg">
<path d="M94.3423 33.4304C94.3423 14.3246 94.3423 4.77172 88.1184 1.18939C81.8946 -2.39294 73.5961 2.3835 56.9992 11.9364L45.0012 18.8423C28.4043 28.3951 20.1058 33.1716 20.1058 40.3362C20.1058 47.5009 28.4043 52.2773 45.0012 61.8302L56.9992 68.7361C73.5961 78.289 81.8946 83.0654 88.1184 79.4831C94.3423 75.9007 94.3423 66.3479 94.3423 47.2421V33.4304Z" fill="#8000FF"/>
<path d="M39.343 71.6001C22.7461 62.0472 14.4477 57.2708 8.22384 60.8531C2 64.4355 2 73.9883 2 93.0941V106.906C2 126.012 2 135.564 8.22384 139.147C14.4477 142.729 22.7461 137.953 39.343 128.4L51.3411 121.494C67.938 111.941 76.2365 107.165 76.2365 100C76.2365 92.8353 67.938 88.0589 51.3411 78.506L39.343 71.6001Z" fill="#8000FF"/>
<path d="M45.0011 138.17C28.4042 147.723 20.1058 152.499 20.1058 159.664C20.1058 166.828 28.4042 171.605 45.0011 181.158L56.9992 188.064C73.5961 197.616 81.8946 202.393 88.1184 198.811C94.3423 195.228 94.3423 185.675 94.3423 166.57V152.758C94.3423 133.652 94.3423 124.099 88.1184 120.517C81.8946 116.935 73.5961 121.711 56.9992 131.264L45.0011 138.17Z" fill="#8000FF"/>
<path d="M105.658 166.569C105.658 185.675 105.658 195.228 111.882 198.81C118.106 202.393 126.404 197.616 143.001 188.063L154.999 181.158C171.596 171.605 179.894 166.828 179.894 159.664C179.894 152.499 171.596 147.723 154.999 138.17L143.001 131.264C126.404 121.711 118.106 116.935 111.882 120.517C105.658 124.099 105.658 133.652 105.658 152.758V166.569Z" fill="#8000FF"/>
<path d="M160.657 128.4C177.254 137.953 185.552 142.729 191.776 139.147C198 135.564 198 126.011 198 106.906V93.0943C198 73.9886 198 64.4357 191.776 60.8534C185.552 57.271 177.254 62.0475 160.657 71.6003L148.659 78.506C132.062 88.0589 123.764 92.8353 123.764 100C123.764 107.165 132.062 111.941 148.659 121.494L160.657 128.4Z" fill="#8000FF"/>
<path d="M154.999 61.8303C171.596 52.2774 179.894 47.501 179.894 40.3363C179.894 33.1717 171.596 28.3953 154.999 18.8424L143.001 11.9367C126.404 2.38383 118.106 -2.3926 111.882 1.18973C105.658 4.77205 105.658 14.3249 105.658 33.4307V47.242C105.658 66.3478 105.658 75.9006 111.882 79.483C118.106 83.0653 126.404 78.2889 143.001 68.736L154.999 61.8303Z" fill="#8000FF"/>
</svg>
